<svg width="31" height="30" viewBox="0 0 31 30" fill="none" xmlns="http://www.w3.org/2000/svg">
<path d="M10.3199 24.156C10.3199 24.28 10.1768 24.3793 9.99639 24.3793C9.79111 24.3979 9.64804 24.2986 9.64804 24.156C9.64804 24.0319 9.79111 23.9326 9.97151 23.9326C10.1581 23.914 10.3199 24.0133 10.3199 24.156ZM8.38528 23.8768C8.34173 24.0009 8.46614 24.1435 8.65276 24.1808C8.81449 24.2428 9.00111 24.1808 9.03843 24.0567C9.07575 23.9326 8.95756 23.79 8.77095 23.7341C8.60921 23.6907 8.42882 23.7527 8.38528 23.8768ZM11.1347 23.7713C10.9544 23.8148 10.8299 23.9326 10.8486 24.0753C10.8673 24.1994 11.029 24.28 11.2156 24.2366C11.396 24.1932 11.5204 24.0753 11.5018 23.9512C11.4831 23.8334 11.3151 23.7527 11.1347 23.7713ZM15.2279 0C6.59998 0 0 6.53216 0 15.1362C0 22.0158 4.34193 27.9028 10.5438 29.9747C11.34 30.1174 11.62 29.6273 11.62 29.2241C11.62 28.8395 11.6013 26.718 11.6013 25.4152C11.6013 25.4152 7.24692 26.3457 6.3325 23.5666C6.3325 23.5666 5.62336 21.7615 4.60319 21.2962C4.60319 21.2962 3.17869 20.3223 4.70272 20.3409C4.70272 20.3409 6.25163 20.4649 7.10385 21.9414C8.46614 24.3359 10.7491 23.6473 11.6386 23.2379C11.7817 22.2453 12.186 21.5567 12.6339 21.1473C9.15662 20.7627 5.64824 20.2602 5.64824 14.2926C5.64824 12.5867 6.121 11.7306 7.11629 10.6388C6.95455 10.2356 6.42581 8.57307 7.27802 6.4267C8.57811 6.02348 11.5702 8.10161 11.5702 8.10161C12.8143 7.75422 14.1517 7.57433 15.4767 7.57433C16.8017 7.57433 18.1391 7.75422 19.3832 8.10161C19.3832 8.10161 22.3752 6.01728 23.6753 6.4267C24.5276 8.57927 23.9988 10.2356 23.8371 10.6388C24.8324 11.7368 25.442 12.5929 25.442 14.2926C25.442 20.2788 21.7781 20.7565 18.3008 21.1473C18.8731 21.6374 19.3583 22.5679 19.3583 24.0257C19.3583 26.1162 19.3396 28.703 19.3396 29.2117C19.3396 29.6149 19.6258 30.105 20.4158 29.9623C26.6363 27.9028 30.8538 22.0158 30.8538 15.1362C30.8538 6.53216 23.8557 0 15.2279 0ZM6.04636 21.3955C5.96549 21.4575 5.98415 21.6002 6.0899 21.718C6.18943 21.8173 6.3325 21.8607 6.41337 21.7801C6.49423 21.718 6.47557 21.5753 6.36982 21.4575C6.27029 21.3582 6.12722 21.3148 6.04636 21.3955ZM5.37454 20.893C5.33099 20.9736 5.3932 21.0729 5.51761 21.1349C5.61714 21.1969 5.74155 21.1783 5.78509 21.0915C5.82864 21.0108 5.76643 20.9116 5.64202 20.8496C5.51761 20.8123 5.41808 20.8309 5.37454 20.893ZM7.38999 23.1014C7.29046 23.182 7.32778 23.3681 7.47086 23.486C7.61393 23.6287 7.79432 23.6473 7.87519 23.548C7.95606 23.4674 7.91874 23.2813 7.79432 23.1634C7.65747 23.0207 7.47086 23.0021 7.38999 23.1014ZM6.68085 22.1895C6.58132 22.2515 6.58132 22.4128 6.68085 22.5555C6.78038 22.6982 6.94833 22.7602 7.0292 22.6982C7.12873 22.6175 7.12873 22.4562 7.0292 22.3136C6.94211 22.1709 6.78038 22.1088 6.68085 22.1895Z" fill="#8F00FF"/>
</svg>
